<svg width="185" height="185" viewBox="0 0 185 185" fill="none" xmlns="http://www.w3.org/2000/svg">
<path d="M185 92.5C185 143.586 143.586 185 92.5 185C41.4137 185 0 143.586 0 92.5C0 41.4137 41.4137 0 92.5 0C143.586 0 185 41.4137 185 92.5Z" fill="#DDE8EE"/>
<mask id="mask0" mask-type="alpha" maskUnits="userSpaceOnUse" x="0" y="0" width="185" height="185">
<path d="M185 92.5C185 143.586 143.586 185 92.5 185C41.4137 185 0 143.586 0 92.5C0 41.4137 41.4137 0 92.5 0C143.586 0 185 41.4137 185 92.5Z" fill="#F2F8FB"/>
</mask>
<g mask="url(#mask0)">
<path d="M87.7886 89.9485C106.783 87.9844 97.8427 152.439 91.3256 157.48C75.4421 177.547 29.1999 193.652 24.8115 173.618C60.2791 168.021 58.0522 93.0256 87.7886 89.9485Z" fill="#0E2C3D"/>
<path d="M54.7445 87.0351C60.0499 80.0953 56.0545 76.4945 57.7247 69.1292C58.5435 65.5611 59.5914 61.6329 61.4582 61.0437C62.7354 61.4038 62.8009 68.409 63.8161 68.9655C64.7003 68.3436 61.4254 57.4429 63.5869 57.8685C65.5846 58.1303 66.0758 67.0014 66.9273 68.2453C68.6303 67.5907 64.8968 55.7734 67.3858 56.4609C69.2853 57.1156 69.6783 68.6709 70.3332 68.6054C72.069 68.4745 70.2677 59.1451 71.6432 58.8832C73.4444 58.5231 79.5358 60.5527 80.0926 65.7575C80.5838 70.4713 75.4421 76.5927 73.4772 79.1133C73.4117 79.2115 64.1109 97.1173 64.0781 94.9568C63.9144 90.0794 51.2076 91.6834 54.7445 87.0351Z" fill="#F3795E"/>
<path d="M68.3359 45.3966C66.9276 52.0417 70.8576 52.991 71.7418 48.9319C73.543 40.7483 69.1546 41.403 68.3359 45.3966Z" fill="#F9AE7C"/>
<path d="M57.332 64.0226C57.2338 59.9308 59.6572 58.7196 60.2795 59.4398C63.3252 62.9424 57.463 69.031 57.332 64.0226Z" fill="#F9AE7C"/>
<path d="M62.8994 61.502C60.4759 58.1631 61.8187 55.8062 62.7356 56.0681C67.2223 57.2465 65.8468 65.5939 62.8994 61.502Z" fill="#F9AE7C"/>
<path d="M55.5963 68.3435C53.6968 64.71 55.3343 62.5495 56.2185 62.9423C60.5087 64.71 57.9543 72.7954 55.5963 68.3435Z" fill="#F9AE7C"/>
<path d="M88.015 53.7748L72.9453 43.7352L53.3476 73.1256L68.4173 83.1651L88.015 53.7748Z" fill="black"/>
<path d="M60.4434 62.9423C58.3147 61.6657 59.0024 59.3742 59.7229 59.1124C63.1288 57.9012 63.0633 64.5136 60.4434 62.9423Z" fill="#F9AE7C"/>
<path d="M56.8728 66.0522C54.8423 64.6446 55.7266 62.3859 56.4143 62.1895C59.9185 61.2075 59.3618 67.7871 56.8728 66.0522Z" fill="#F9AE7C"/>
<path d="M66.0103 57.8685C64.1108 60.029 61.6219 58.7196 61.4909 57.8685C60.8031 53.7112 68.3355 55.217 66.0103 57.8685Z" fill="#F9AE7C"/>
<path d="M83.335 64.1535C85.3982 64.3827 82.4508 67.2306 81.7958 68.9001C82.549 70.2749 77.4729 75.5452 76.7524 77.1492C76.2284 78.0658 64.9953 90.3085 66.1088 79.8989C66.5018 76.6909 69.3838 73.0574 73.3792 72.3372C75.2132 72.0098 77.8659 69.522 77.5711 69.7184C78.8483 68.3436 79.9291 63.7934 83.335 64.1535Z" fill="#F9AE7C"/>
<path d="M52.124 86.7405C53.3685 85.9221 56.3487 86.7732 58.8376 87.0678C55.8902 90.3413 54.5802 94.4331 53.434 98.5577C51.5673 98.2958 49.6023 98.0012 47.0479 97.6411C47.5391 95.1206 50.7813 88.5736 52.124 86.7405Z" fill="#E4F3F8"/>
<path d="M69.1861 89.0974C68.2036 92.8291 65.9111 96.79 64.5029 99.6707C59.4267 99.3761 56.5448 99.016 53.4336 98.5904C54.5798 94.4331 55.857 90.3413 58.8372 87.1006C63.2912 87.6243 68.3673 89.1956 69.1861 89.0974Z" fill="#D6E8EE"/>
<path d="M32.7695 179.674C23.4359 184.257 8.99342 152.013 45.9675 94.7932C58.183 95.5788 49.0787 94.8259 66.4031 96.7246L54.8426 145.859C48.2272 164.42 46.0985 174.273 32.7695 179.674Z" fill="#225169"/>
<path d="M50.5519 137.054C47.6699 116.824 56.6433 94.9241 58.9685 96.0371L66.4026 96.7245C66.4026 96.7245 61.3592 131.718 58.0187 159.575C55.8245 177.907 31.459 179.838 31.459 179.838C39.1223 178.201 53.7286 159.28 50.5519 137.054Z" fill="#1A3F53"/>
<path d="M103.934 107.134C105.866 96.9537 109.109 94.5968 108.29 83.4998C109.076 83.5325 109.829 83.4343 110.55 83.0742L197.663 269.531C197.663 269.531 140.384 299.058 99.0217 281.053C91.7186 277.878 85.0705 253.622 82.3195 234.243C74.1977 191.721 95.321 152.308 103.934 107.134Z" fill="black"/>
<path d="M158.919 108.051C156.463 115.58 142.184 126.317 140.285 125.662C135.405 123.993 126.235 116.3 115.887 107.101C102.066 94.7932 107.601 88.4754 104.653 75.1197C96.4989 38.195 98.8896 7.719 107.11 35.2489C108.682 40.5191 122.469 51.4853 131.246 72.4682C136.551 85.1365 133.833 80.6846 146.212 83.7944C154.105 85.7584 163.93 92.6 158.919 108.051Z" fill="#F3795E"/>
<path d="M112.644 236.927C109.959 224.357 111.039 213.162 109.074 200.592C107.077 190.247 110.221 177.939 108.223 166.842C105.505 151.195 120.57 121.865 121.65 107.003C121.945 107.134 125.22 106.676 125.449 106.676C131.901 106.218 133.244 95.4806 141.627 94.8914C173.656 110.08 180.665 174.109 179.617 242.983V242.95C171.397 244.325 146.9 249.039 134.848 248.384C122.076 247.893 114.151 245.7 112.644 236.927Z" fill="white"/>
<path d="M104.424 80.6191C104.293 98.2959 113.758 107.92 121.651 107.003C120.57 121.865 110.909 151.326 113.627 166.973C115.625 178.037 108.813 188.611 110.811 198.922C112.808 211.46 107.405 207.761 110.09 220.298C111.138 228.318 117.098 246.257 111.073 242.59C76.6202 221.869 111.138 149.002 104.424 80.6191Z" fill="#C6DCE1"/>
<path d="M112.055 121.014C112.906 104.548 123.386 107.134 123.386 107.134C123.386 107.134 108.78 108.902 104.457 77.6403C100.527 94.0403 105.439 112.404 112.055 121.014Z" fill="white"/>
<path d="M141.3 105.072C140.154 109.393 126.432 125.302 126.432 125.302C126.432 125.302 128.102 114.696 121.225 109.786C133.342 105.301 136.093 81.0119 132.13 72.6646C139.794 80.4881 143.985 94.9896 141.3 105.072Z" fill="#D6E8EE"/>
<path d="M141.3 101.798C140.154 106.119 126.432 122.028 126.432 122.028C126.432 122.028 128.102 111.422 121.225 106.512C133.342 102.028 134.455 77.7385 130.493 69.3911C138.156 77.2147 143.985 91.7162 141.3 101.798Z" fill="white"/>
<path d="M80.7144 134.009C68.7936 95.4806 78.0944 87.5261 105.342 80.5209C106.161 91.6179 104.425 106.578 104.327 116.955C103.999 160.688 78.3564 186.254 81.3694 227.139C74.8523 188.84 90.1462 164.551 80.7144 134.009Z" fill="#225169"/>
<path d="M144.51 99.5398L139.041 80.9465C143.2 80.8811 176.67 94.4332 187.117 104.188C178.373 127.561 185.611 164.093 201.527 182.817C202.247 198.693 183.744 242.721 219.932 262.591C208.83 286.029 174.05 291.038 163.57 290.088C127.644 286.913 137.633 187.923 144.51 99.5398Z" fill="#235168"/>
<path d="M134.686 74.2358C137.895 76.2327 149.292 88.7373 155.645 100.096C153.32 102.289 151.912 105.465 150.078 107.2C152.829 110.899 154.663 112.404 158.298 116.103C150.7 147.267 143.069 177.71 138.681 183.308C140.711 121.537 140.449 92.6982 134.686 74.2358Z" fill="#356580"/>
<path d="M104.688 75.1196C98.6291 84.4163 95.8781 88.0826 92.1119 100.849C93.9459 103.828 95.2886 106.512 97.1226 108.247C94.3389 111.913 93.3892 112.895 89.6885 116.562C91.8499 136.726 91.7844 160.132 92.1774 171.458C110.124 137.021 107.078 97.4119 104.688 75.1196Z" fill="#356681"/>
<path d="M98.301 243.67C101.609 246.977 104.261 249.825 107.471 252.214C110.222 250.905 112.58 249.039 115.822 244.783C101.248 198.758 123.289 141.44 119.719 110.375C108.093 124.091 96.1396 192.375 98.301 243.67Z" fill="#EF5656"/>
<path d="M118.147 120.326C120.996 118.591 122.732 117.086 125.057 111.815C126.596 108.345 121.389 106.676 118.54 107.396C114.708 108.345 114.184 113.092 118.147 120.326Z" fill="#EF5656"/>
<path d="M185.447 117.478C186.364 115.58 187.379 113.746 188.558 111.946L189.606 112.83L251.109 210.052C254.614 245.438 249.636 274.212 250.225 282.69L235.259 285.309C235.259 285.309 221.962 243.179 216.69 225.601C212.531 211.754 203.787 201.148 194.453 189.2C179.945 170.705 174.967 139.083 185.447 117.478Z" fill="#1A3848"/>
<path d="M236.437 213.26C233.49 175.648 175.589 141.473 182.171 115.94C183.088 114.041 185.938 105.988 187.117 104.221C229.658 141.407 250.192 176.433 252.091 193.521C255.596 225.012 256.218 244.652 254.187 281.97C248.194 282.919 247.015 283.312 245.542 283.41C228.708 246.126 237.452 226.19 236.437 213.26Z" fill="#235168"/>
<path d="M82.0897 34.496C95.1567 25.9195 107.634 47.6881 106.39 63.1389C105.014 80.0299 83.2031 76.691 76.424 51.1907C73.6076 40.5519 79.4042 36.2637 82.0897 34.496Z" fill="#F3795E"/>
<path d="M96.335 32.3027C97.907 32.0081 106.16 31.7463 109.304 42.2213C111.367 50.7651 106.651 50.0777 107.142 51.2234C110.221 58.2286 106.946 67.1979 104.162 70.4059C97.4485 78.1967 86.543 69.1947 83.1043 57.5084C79.6329 45.6258 76.3252 32.3355 96.335 32.3027Z" fill="#FAB787"/>
<path d="M89.6553 45.4293C90.736 45.2983 92.3735 45.7239 92.046 47.1642C91.915 47.688 89.8846 50.1103 89.3278 50.2085C89.0331 50.274 88.7056 50.1758 88.4108 50.0449C87.6904 49.6848 87.1009 49.0301 86.8061 48.2772C85.9219 45.8221 86.8061 45.7894 89.6553 45.4293Z" fill="#F3795E"/>
<path d="M104.163 43.138C104.491 47.4917 105.702 45.233 105.899 46.9025C105.932 47.2625 105.964 47.6881 106.226 47.95C106.881 48.7683 107.896 45.9532 107.929 43.2689C107.962 39.6026 103.836 38.6206 104.163 43.138Z" fill="#F3795E"/>
<path d="M98.3669 64.3248C92.9412 61.918 88.4699 62.8933 87.5507 69.2482C87.5507 69.2482 90.0162 67.1718 92.3667 65.8899C94.7173 64.6081 98.3669 64.3248 98.3669 64.3248Z" fill="white"/>
<path d="M82.0234 51.8126C82.2854 52.4673 81.9906 53.2202 81.3684 53.4493C80.7461 53.6785 80.0257 53.3511 79.7637 52.6964C79.5017 52.0417 79.7964 51.2889 80.4187 51.0597C81.0409 50.7978 81.7614 51.1252 82.0234 51.8126Z" fill="#171812"/>
<path d="M90.9316 48.6046C91.1936 49.2593 90.8988 50.0122 90.2766 50.2413C89.6543 50.4705 88.9339 50.1431 88.6719 49.4884C88.4099 48.8337 88.7046 48.0808 89.3269 47.8517C89.9818 47.5898 90.6696 47.9172 90.9316 48.6046Z" fill="#171812"/>
<path d="M88.3118 62.124C87.2638 62.7132 86.3796 62.8769 85.5609 62.5823C83.5959 61.8294 83.0392 58.5232 82.4497 55.3479C81.9912 52.7619 81.4672 49.8158 80.2882 49.4229C79.666 49.2265 78.749 49.6848 77.6028 50.7651L76.915 50.0449C78.3888 48.6701 79.5677 48.179 80.583 48.5064C82.3514 49.0956 82.8754 52.0417 83.4322 55.1842C83.9234 57.9667 84.4801 61.142 85.9211 61.6657C86.6089 61.9276 87.5913 61.5675 88.8031 60.5855L89.4253 61.3711C89.0651 61.633 88.6721 61.8949 88.3118 62.124Z" fill="#221F1F"/>
<path d="M91.3903 45.9531C89.3271 45.6912 88.4101 45.8221 87.0347 46.5423L86.5762 45.6585C88.1154 44.8728 89.2616 44.7091 91.5213 44.971L91.3903 45.9531Z" fill="#221F1F"/>
<path d="M91.7181 35.1506C94.6983 36.2963 97.1545 41.0756 99.2177 43.2033C101.838 45.9531 101.838 43.1706 101.969 42.2868C102.46 38.8169 105.014 36.8528 107.241 38.5878C111.793 42.1558 112.972 48.1463 119.555 51.2888C118.409 46.6077 119.293 42.5486 117.623 31.1897C112.841 -1.28307 106.03 20.6492 98.268 12.7928C89.8841 4.28182 83.629 18.1613 80.4851 15.8044C74.1972 11.1561 65.6823 14.1022 70.5292 26.4759C76.7516 42.2868 77.0791 39.9953 78.8476 37.9003C82.8103 33.1538 87.8209 33.6448 91.7181 35.1506Z" fill="black"/>
</g>
</svg>
