<svg width="351" height="476" viewBox="0 0 351 476" fill="none" xmlns="http://www.w3.org/2000/svg">
<g clip-path="url(#clip0)">
<path d="M109.26 114.298C111.524 105.823 114.368 104.023 114.426 94.6194C115.065 94.6774 115.762 94.6775 116.342 94.3872L178.287 257.272C178.287 257.272 128.069 278.634 94.3394 260.871C88.3597 257.736 84.2959 236.839 83.1348 220.295C78.8968 183.84 99.216 151.855 109.26 114.298Z" fill="black"/>
<path d="M314.949 438.268C313.381 437.862 311.291 437.514 308.853 437.223C305.834 441.171 300.029 436.12 302.815 451.91C303.338 454.986 296.719 471.414 297.764 474.317C298.577 479.657 309.492 471.588 312.917 467.177C315.239 464.216 315.82 457.773 317.968 453.999C318.49 453.129 320.174 454.406 320.638 453.535C323.076 449.065 324.702 447.092 323.947 445.176C323.715 444.712 318.49 439.371 314.949 438.268Z" fill="black"/>
<path d="M313.323 436.701C290.972 410.289 274.484 384.689 251.494 369.654C249.52 368.377 247.605 366.926 245.747 365.359C241.915 364.314 236.284 360.599 233.323 358.509C212.888 344.113 208.011 321.184 197.445 310.154C181.132 295.468 189.898 275.441 191.465 255.473C191.988 248.739 182.409 227.667 169.405 230.976C129.637 241.134 115.355 244.675 116.342 266.85C117.329 287.632 131.088 305.278 132.946 309.168C147.808 340.224 174.746 355.607 192.801 375.575C236.632 423.988 293.004 455.741 293.004 455.741C302.466 453.535 317.677 441.925 313.323 436.701Z" fill="#0B2633"/>
<path d="M203.425 384.689C235.123 412.611 230.13 412.785 291.378 452.664C288.94 449.298 235.239 391.887 203.425 384.689Z" fill="#001926"/>
<path d="M199.535 315.089C212.017 334.245 223.976 359.496 245.689 365.359C229.375 351.659 216.429 327.279 203.25 302.318C191.697 280.434 187.285 279.969 189.956 272.249C191.175 268.824 193.091 263.077 191.349 255.473C173.584 300.286 197.677 311.083 199.535 315.089Z" fill="#001926"/>
<path d="M39.3616 466.016C39.3616 464.448 39.1874 462.416 38.8971 460.036C34.8914 457.831 33.6142 455.509 29.1439 455.16C22.0032 454.754 4.93503 455.857 1.1034 455.683C-4.23765 458.469 11.1469 466.596 15.0946 467.873C18.3457 468.918 23.7448 469.034 27.3442 470.427C28.215 470.776 27.5184 472.575 28.3312 472.865C32.6272 474.433 35.1816 474.955 36.633 473.91C36.9813 473.62 39.1874 469.556 39.3616 466.016Z" fill="black"/>
<path d="M50.2181 465.029C62.6419 450.052 88.186 411.275 94.8624 386.082C95.501 383.702 95.9654 381.264 96.7201 378.826C96.3718 374.589 96.1976 370.641 97.0684 366.926C100.378 352.298 134.049 303.885 186.531 277.647C191.001 275.732 196.284 275.093 200.638 261.394C205.167 243.631 134.107 224.068 111.002 238.29C86.2702 282.814 83.7158 299.009 69.6085 329.949C64.1513 341.849 60.7841 347.074 55.6172 362.573C45.2835 407.096 40.3488 425.323 27.6348 455.218C29.5506 462.881 45.1093 471.182 50.2181 465.029Z" fill="#1A3F53"/>
<path d="M55.4431 363.966C53.1209 370.874 48.8249 395.951 39.8264 423.234C34.8336 438.5 28.7379 452.664 28.2734 455.393C52.134 415.455 54.9206 409.882 55.4431 363.966Z" fill="#122F3F"/>
<path d="M97.0683 366.926C96.1975 370.583 96.3716 374.589 96.72 378.826C103.338 357.638 121.8 341.443 139.39 319.384C154.775 300.054 164.122 295.526 171.553 293.378C180.783 290.766 196.865 275.673 197.503 267.779C196.458 268.475 111.698 302.492 97.0683 366.926Z" fill="#122F3F"/>
<path d="M184.789 242.179C184.151 240.844 182.235 236.781 181.48 235.388C171.785 222.385 145.022 231.847 142.583 234.575C142.351 234.807 106.706 218.902 106.531 219.308C105.254 222.617 107.112 242.702 104.964 249.958C110.189 242.934 165.341 226.796 184.789 242.179Z" fill="#15313F"/>
<path d="M25.9507 21.5941C24.4993 19.5044 23.6285 15.9054 23.3963 14.6863C22.6996 11.3195 19.7388 6.84976 21.1902 5.80488C22.3513 5.74683 24.3832 12.0161 25.3702 12.1902C25.9507 11.3776 20.1452 2.6122 22.061 2.38C23.8027 2.03171 26.7054 9.81024 27.7504 10.681C29.0276 9.57805 22.5835 0.116098 24.8477 0C26.6474 0 30.1887 10.2166 30.7112 9.98439C32.1045 9.34585 28.0407 1.56732 29.1437 0.92878C30.5951 0.0580488 32.3368 5.86293 34.2526 10.3327C35.9942 14.3961 37.2714 15.6151 36.2845 18.4595C35.4137 21.0137 36.807 24.2063 35.0653 26.2961C33.7881 27.8054 31.582 35.1776 30.8273 32.8556C29.434 28.56 29.0857 26.0059 25.9507 21.5941Z" fill="#FF7B5D"/>
<path d="M39.0129 8.301C40.4062 7.89466 39.2451 10.5069 39.2451 11.7839C40.0578 12.4805 38.142 17.1825 38.084 18.4015C37.7937 20.3752 34.5426 25.7156 33.904 25.3673C32.9752 24.903 32.2204 24.0322 31.9302 22.8712C31.3496 20.7234 32.2785 17.5888 34.7168 16.1376C35.8198 15.441 36.9229 13.1771 36.7487 13.3512C37.1551 12.1903 36.7487 8.93954 39.0129 8.301Z" fill="#FCB988"/>
<path d="M34.4267 34.1907C35.1233 34.0165 38.8389 33.8424 39.7097 33.8424C40.9288 33.6102 43.8316 38.8926 44.9927 39.299C49.579 45.5102 54.1654 51.7214 58.6356 57.9907C55.6748 61.1834 53.0043 64.7824 50.3337 68.4395C45.341 61.996 40.7547 55.1463 36.5167 48.1224C34.6589 45.8585 29.0276 38.4863 34.4267 34.1907Z" fill="#B6CAD8"/>
<path d="M37.5615 29.2566C40.1159 32.5654 42.6123 35.9322 45.1087 39.299C44.0056 38.9507 41.277 35.7581 40.0579 35.9902C36.8649 34.7712 30.3047 36.2805 36.6907 48.1805C40.7545 54.9142 45.1087 61.4737 49.8692 67.6849C48.65 69.1361 47.4309 70.5293 46.1536 71.9805C39.9998 62.7507 33.4396 52.5342 29.1436 41.3888C29.1436 41.2146 35.0652 34.0166 37.5615 29.2566Z" fill="#B6CAD8"/>
<path d="M26.6475 31.9268C26.8216 30.8239 27.9827 29.4887 29.4341 28.2117C29.7824 31.5785 31.466 34.4229 33.2657 37.1512C32.1627 38.08 31.0016 39.0668 29.4922 40.3439C28.273 38.7765 27.0538 33.6102 26.6475 31.9268Z" fill="#D0E4EA"/>
<path d="M35.8787 23.2776C37.5042 25.7737 38.6072 29.0825 39.5361 31.3464C36.7495 34.0747 35.0659 35.5839 33.2662 37.0932C31.4665 34.3069 29.7829 31.4625 29.4346 28.1537C31.989 25.8898 35.5303 23.8 35.8787 23.2776Z" fill="#E4F4F9"/>
<path d="M38.7233 28.7341L66.0091 73.7219C88.5924 88.118 96.1396 85.4478 103.106 93.4585C103.106 93.4585 99.8551 145.238 96.0815 159.576C87.0249 146.747 76.7492 123.412 55.9075 101.759C36.6333 81.7327 27.6348 38.08 27.6348 38.08C33.9047 32.5073 28.6798 38.1961 38.7233 28.7341Z" fill="#193E57"/>
<path d="M57.3586 72.503C51.437 64.4923 29.8987 36.9191 29.6084 36.2806L38.723 28.3279C38.723 28.3279 53.1787 53.8693 65.0799 66.2918C76.5168 78.1337 91.611 86.783 91.611 86.783C83.077 86.783 64.7897 82.5454 57.3586 72.503Z" fill="#255670"/>
<path d="M152.569 125.501C149.144 131.248 135.385 137.518 133.933 136.589C130.218 134.325 120.232 128.23 116.111 117.317C113.498 110.467 112.976 106.229 112.976 90.8463C112.976 61.3576 125.515 40.46 127.199 64.7244C128.36 81.5005 135.733 95.0839 146.589 103.037C152.105 107.158 159.594 113.66 152.569 125.501Z" fill="#FF7B5D"/>
<path d="M117.62 220.179C116.169 209.44 119.884 199.688 118.955 188.949C117.91 180.067 110.131 174.437 109.144 164.975C107.809 151.565 122.38 127.765 124.238 115.285C124.47 115.401 127.257 115.227 127.489 115.227C132.946 115.227 139.449 126.488 141.19 112.092C167.257 126.895 169.927 175.598 164.761 233.704C164.761 233.704 164.761 233.704 164.761 233.646C157.736 234.285 136.778 236.781 126.618 235.446C121.916 232.079 118.375 227.667 117.62 220.179Z" fill="#C7DDE2"/>
<path d="M112.511 90.7302C111.292 105.649 120.116 115.575 126.851 115.285C124.993 127.765 112.395 152.03 113.672 165.439C114.659 174.901 119.013 180.125 120.058 188.949C120.929 199.688 116.052 209.382 117.562 220.179C118.317 227.667 123.019 232.137 127.721 235.504C65.7769 230.802 114.195 159.112 112.511 90.7302Z" fill="#E7F4F7"/>
<path d="M115.298 126.488C120 117.549 125.748 115.459 125.748 115.459C125.748 115.459 112.743 115.981 112.743 88.6404C108.331 102.282 111.756 116.33 115.298 126.488Z" fill="white"/>
<path d="M143.338 117.491C141.945 121.032 132.831 127.417 132.831 127.417C132.831 127.417 130.508 118.245 126.038 115.169C136.546 112.15 138.404 99.6116 136.952 92.8779C143.629 97.0574 148.738 103.733 143.338 117.491Z" fill="white"/>
<path d="M88.0114 135.544C80.3482 102.282 90.1594 90.2658 112.453 89.9175C112.453 99.3214 109.724 113.892 109.027 122.657C106.008 159.576 82.7865 179.545 82.7865 214.258C79.6515 181.46 94.0491 161.898 88.0114 135.544Z" fill="#215069"/>
<path d="M143.976 110.409L143.164 99.7859C146.647 99.96 167.953 111.512 179.1 117.433C170.275 136.647 185.486 170.199 197.793 187.033C197.445 200.501 201.451 234.053 230.71 253.093C214.919 270.623 184.731 273.584 175.965 272.133C145.892 267.141 132.714 184.595 143.976 110.409Z" fill="#235068"/>
<path d="M197.387 187.788C202.263 220.643 232.51 252.28 232.51 252.28C232.51 252.28 221.828 262.032 213.41 265.109C201.277 247.346 195.819 226.506 197.387 187.788Z" fill="#1A3848"/>
<path d="M140.783 95.7224C143.396 97.58 151.001 108.435 155.645 118.419C153.555 120.103 152.162 122.715 150.479 124.05C152.568 127.359 154.02 128.694 156.865 132.061C148.505 157.893 144.034 176.178 140.029 180.59C135.907 122.889 144.499 111.686 140.783 95.7224Z" fill="#35657F"/>
<path d="M112.743 88.002C107.053 95.4902 103.686 97.638 99.6803 108.203C101.016 110.815 102.002 113.195 103.454 114.762C100.841 117.665 100.029 118.478 96.6614 121.322C97.242 138.504 95.7326 158.241 95.3262 167.819C112.046 139.956 111.988 107.158 112.743 88.002Z" fill="#346681"/>
<path d="M154.252 216.696C158.839 210.775 161.277 207.35 161.974 200.384C150.827 176.004 129.347 174.32 124.877 125.443C119.129 123.934 117.271 151.623 122.38 165.033C128.36 180.764 149.84 198.469 154.252 216.696Z" fill="#DA3D3F"/>
<path d="M124.064 128.462C124.993 129.855 130.45 125.56 128.476 119.522C127.489 116.446 123.89 116.794 121.916 118.303C119.303 120.335 120.29 122.599 124.064 128.462Z" fill="#DA3D3F"/>
<path d="M264.673 271.03L270.188 265.515C274.658 261.045 274.02 260.871 278.49 265.341L278.78 265.631C283.309 270.159 281.219 271.9 278.955 274.106C280.116 272.887 280.406 271.784 277.677 269.056L277.445 268.824C273.439 264.819 274.484 264.877 271.233 268.127L267.227 272.133C263.976 275.383 263.976 274.977 267.634 278.634L267.866 278.866C270.711 281.711 271.988 281.014 273.381 279.563L273.265 279.679C270.885 282.059 268.853 284.439 264.383 279.969L264.092 279.679C259.68 275.209 260.493 275.209 264.673 271.03Z" fill="#172A33"/>
<path d="M289.752 351.369L349.317 291.811C351.581 289.547 351.581 285.832 349.317 283.626L311.175 245.488C308.911 243.224 305.195 243.224 302.989 245.488L243.425 305.046C241.161 307.31 241.161 311.025 243.425 313.231L281.567 351.369C283.831 353.633 287.488 353.633 289.752 351.369Z" fill="#DB3E3E"/>
<path d="M258.81 263.367C258.636 261.974 259.332 260.349 259.506 258.723C258.926 256.808 258.462 255.182 258.52 254.892C258.636 253.441 259.739 250.654 259.971 249.61C260.029 249.261 260.726 249.493 261.655 250.132C261.945 250.132 262.351 250.422 262.7 250.887C264.267 252.048 266.183 253.673 267.344 254.776C266.705 255.298 266.067 255.879 265.486 256.459C265.486 256.517 265.486 256.517 265.544 256.575C264.499 257.911 261.829 261.51 266.473 265.631C266.473 265.689 266.473 265.689 266.415 265.689C269.492 266.502 273.788 266.095 275.82 264.47C276.052 265.283 277.504 268.533 275.704 268.824C274.601 268.998 275.123 270.507 273.846 270.449C272.453 270.391 272.975 272.074 271.524 271.784C270.305 271.552 269.782 273.119 269.202 273.119C264.731 273.061 269.086 271.262 263.338 267.431C263.106 267.779 262.467 268.417 262.7 269.056C263.454 271.262 263.744 271.32 263.454 273.119C263.222 274.28 262.409 274.629 262.119 274.512C260.9 273.99 262.061 272.365 260.029 270.971C258.752 269.927 258.984 264.992 258.81 263.367Z" fill="#FF7B5D"/>
<path d="M266.706 266.153C262.7 262.903 262.932 257.562 267.46 254.718C273.382 259.652 275.008 261.8 275.704 263.715C275.82 264.006 275.878 264.238 275.936 264.47C273.498 266.328 268.738 268.011 266.706 266.153Z" fill="#FCB988"/>
<path d="M264.267 255.473C261.422 256.75 258.287 259.246 258.287 259.246C258.287 259.246 254.92 256.053 251.03 249.203C253.004 248.449 256.72 245.779 258.752 245.024C259.971 249.029 261.654 252.686 264.267 255.473Z" fill="#C7DDE2"/>
<path d="M267.169 253.789C267.053 253.441 265.95 254.718 264.266 255.473C261.654 252.686 258.403 249.61 257.184 245.662C259.622 244.792 261.189 243.805 263.512 242.76C263.86 243.166 265.137 248.797 267.169 253.789Z" fill="#E4F4F9"/>
<path d="M176.023 127.011C176.546 125.385 177.126 123.702 177.823 122.135L178.81 122.715L245.863 191.561L265.544 246.997C261.945 250.016 260.9 250.306 252.249 256.053C252.249 256.053 227.518 218.147 221.422 211.472C213.353 202.59 201.045 190.052 189.84 184.015C178.578 168.109 170.392 145.876 176.023 127.011Z" fill="#1A3848"/>
<path d="M232.221 197.308C224.442 167.355 174.166 148.547 176.024 127.069C176.546 125.443 177.359 118.768 178.056 117.142C206.851 129.1 234.079 171.94 245.864 191.619C258.346 212.575 265.428 246.997 265.428 246.997L260.494 250.771C236.575 222.965 234.892 207.582 232.221 197.308Z" fill="#235068"/>
<path d="M107.635 52.244C120.697 50.0962 122.903 71.1679 116.633 82.7196C109.783 95.3162 94.0497 85.2737 97.533 63.2152C98.9844 54.0435 104.906 52.6503 107.635 52.244Z" fill="#FF7B5D"/>
<path d="M119.42 55.3785C120.755 55.6688 127.199 58.339 126.038 67.5107C124.703 74.8248 121.278 72.677 121.278 73.78C121.278 80.2234 115.646 86.0863 112.395 87.6536C104.558 91.3687 99.1587 80.6878 100.494 70.4712C101.887 60.0224 103.919 48.5868 119.42 55.3785Z" fill="#FCB988"/>
<path d="M109.725 63.2733C110.596 63.5636 111.757 64.4343 111.002 65.4211C110.712 65.7694 108.331 66.9304 107.867 66.8723C107.635 66.8143 107.403 66.6401 107.228 66.4079C106.764 65.8855 106.532 65.1889 106.59 64.4923C106.706 62.3445 107.403 62.5767 109.725 63.2733Z" fill="#FF7B5D"/>
<path d="M121.742 66.4659C120.523 69.9488 122.207 68.6137 121.8 70.0068C121.684 70.2971 121.568 70.6454 121.684 70.9356C121.916 71.8063 123.658 69.9488 124.587 67.9171C125.922 65.0146 123.019 62.8668 121.742 66.4659Z" fill="#FF7B5D"/>
<path d="M110.305 76.218C104.558 81.5005 102.584 80.978 100.552 77.2048C100.494 77.2048 110.305 76.218 110.305 76.218Z" fill="white"/>
<path d="M101.655 65.5951C101.655 66.1756 101.132 66.698 100.61 66.64C100.029 66.64 99.623 66.1175 99.623 65.479C99.623 64.8985 100.146 64.3761 100.668 64.4341C101.249 64.4922 101.655 65.0146 101.655 65.5951Z" fill="#16170F"/>
<path d="M109.667 66.1757C109.667 66.7561 109.144 67.2786 108.622 67.2205C108.041 67.2205 107.635 66.6981 107.635 66.0596C107.635 65.4791 108.157 64.9566 108.68 65.0147C109.26 65.0727 109.667 65.5952 109.667 66.1757Z" fill="#16170F"/>
<path d="M102.468 75.8116C101.713 75.8116 101.133 75.5794 100.726 75.1731C99.4492 73.9541 100.146 71.1677 100.784 68.4975C101.307 66.3497 101.946 63.9116 101.133 63.157C100.726 62.8087 99.8556 62.8087 98.5784 63.2731L98.2881 62.4604C99.9136 61.8799 101.017 61.938 101.655 62.5185C102.816 63.5633 102.236 66.0594 101.539 68.6716C100.959 70.9936 100.32 73.6638 101.249 74.5346C101.713 74.999 102.584 75.057 103.861 74.7087L104.094 75.5214C103.513 75.6955 102.991 75.8116 102.468 75.8116Z" fill="#231F20"/>
<path d="M110.886 64.2598C109.377 63.3891 108.622 63.1569 107.287 63.2149L107.229 62.4023C108.68 62.2862 109.667 62.5764 111.292 63.5632L110.886 64.2598Z" fill="#231F20"/>
<path d="M114.833 56.0171C116.749 57.9327 117.039 62.4605 117.852 64.8405C118.955 67.859 119.884 65.7112 120.29 65.0727C121.858 62.5185 124.528 61.88 125.631 64.0278C127.954 68.3234 124.354 72.4449 128.36 77.0888C131.785 72.6771 133.585 71.1678 136.139 61.8219C143.57 35.0615 130.74 49.6897 127.431 40.9824C123.832 31.5205 114.253 40.1117 112.627 37.2673C109.376 31.5205 101.771 30.8819 101.306 42.1434C100.726 56.5395 101.771 54.8561 103.861 53.8112C108.621 51.4312 112.337 53.521 114.833 56.0171Z" fill="black"/>
</g>
<defs>
<clipPath id="clip0">
<rect width="351" height="476" fill="white"/>
</clipPath>
</defs>
</svg>
