<svg width="185" height="185" viewBox="0 0 185 185" fill="none" xmlns="http://www.w3.org/2000/svg">
<path d="M185 92.5C185 143.586 143.586 185 92.5 185C41.4137 185 0 143.586 0 92.5C0 41.4137 41.4137 0 92.5 0C143.586 0 185 41.4137 185 92.5Z" fill="#DDE8EE"/>
<mask id="mask0" mask-type="alpha" maskUnits="userSpaceOnUse" x="0" y="0" width="185" height="185">
<path d="M185 92.5C185 143.586 143.586 185 92.5 185C41.4137 185 0 143.586 0 92.5C0 41.4137 41.4137 0 92.5 0C143.586 0 185 41.4137 185 92.5Z" fill="#F2F8FB"/>
</mask>
<g mask="url(#mask0)">
<path d="M70.6013 78.4259C86.3893 90.7554 69.1134 130.751 61.7016 132.075C50.763 137.619 -25.6698 127.385 -30.8223 103.168C0.533356 112.684 56.3012 67.2549 70.6013 78.4259Z" fill="#15415A"/>
<path d="M40.4298 52.8291C52.4155 48.6917 55.3913 40.4996 62.252 39.6997C65.586 39.3135 69.2781 38.9825 70.3802 40.3341C70.4629 41.465 64.5114 43.5613 64.3736 44.5542C65.1727 45.1059 73.4386 39.2583 73.7968 41.1064C74.2101 42.7889 66.7983 45.7955 65.9993 46.816C67.1289 48.0021 76.0286 41.5201 76.2491 43.7268C76.3042 45.4645 66.5503 49.1606 66.7983 49.6571C67.4871 51.0086 74.8438 46.816 75.5602 47.8642C76.4419 49.2157 76.6899 54.7047 72.4467 56.6631C68.5893 58.4284 60.3233 60.6074 57.5128 59.7524C57.4302 59.7248 43.874 64.6621 45.6925 64.0001C49.7428 62.5107 35.4427 54.5668 40.4298 52.8291Z" fill="#F3795E"/>
<path d="M84.2396 41.5202C78.0953 42.3476 78.5637 45.7679 82.3385 45.299C89.9156 44.3612 87.9318 41.0237 84.2396 41.5202Z" fill="#F9AE7C"/>
<path d="M66.4952 37.8792C69.9669 36.6104 71.7855 38.2102 71.3722 38.9273C69.3332 42.3752 62.2245 39.4514 66.4952 37.8792Z" fill="#F9AE7C"/>
<path d="M70.4352 41.6028C72.5017 38.6791 74.9539 39.0652 75.0366 39.8651C75.4775 43.8371 67.9003 45.1886 70.4352 41.6028Z" fill="#F9AE7C"/>
<path d="M62.2242 37.7413C64.704 35.1485 67.0736 35.8381 67.046 36.638C66.9082 40.6375 59.1658 40.9409 62.2242 37.7413Z" fill="#F9AE7C"/>
<path d="M53.7109 52.3877L57.3755 37.3275L88.8965 44.499L85.2043 59.5593L53.7109 52.3877Z" fill="black"/>
<path d="M57.5957 51.3396L60.5163 39.3962L86.8022 45.3817L83.8815 57.3251L57.5957 51.3396Z" fill="black"/>
<path d="M68.3968 40.0582C68.7825 37.9895 70.9867 37.8792 71.4276 38.3481C73.6043 40.7478 67.9283 42.6234 68.3968 40.0582Z" fill="#F9AE7C"/>
<path d="M64.5942 38.0998C65.1452 36.0587 67.3495 36.0863 67.7628 36.6103C69.7191 39.1204 63.9053 40.6099 64.5942 38.0998Z" fill="#F9AE7C"/>
<path d="M74.5684 43.0372C72.1162 42.127 72.4193 39.7824 73.0805 39.3963C76.4145 37.631 77.5717 44.1405 74.5684 43.0372Z" fill="#F9AE7C"/>
<path d="M78.7836 58.5939C79.6102 60.1937 76.0558 60.0558 74.4302 60.3592C73.7413 61.5452 67.1837 60.304 65.5856 60.5247C64.6212 60.5798 49.6047 57.463 58.2564 53.4359C60.9291 52.2222 65.1447 52.6084 67.6521 55.1736C68.8093 56.3597 72.0055 57.1044 71.7024 56.9941C73.3832 57.2699 77.461 55.9735 78.7836 58.5939Z" fill="#F9AE7C"/>
<path d="M41.1462 51.1465C42.4963 51.312 44.0944 53.5187 45.6649 55.0909C41.6697 55.5598 38.3633 57.4906 35.1395 59.5593C33.9823 58.3457 32.7975 57.0769 31.1719 55.4219C33.0179 54.0427 39.1348 51.5879 41.1462 51.1465Z" fill="#E4F3F8"/>
<path d="M51.7818 62.1797C48.9163 64.0829 45.0037 65.3517 42.3035 66.455C38.8869 63.4209 37.0959 61.6004 35.1396 59.5869C38.3634 57.5182 41.6698 55.5874 45.665 55.1185C48.4754 57.9319 51.1481 61.7659 51.7818 62.1797Z" fill="#D6E8EE"/>
<path d="M-29.0319 104.05C-38.3173 101.982 -27.8195 72.4681 31.2822 54.7047C39.5758 61.8762 33.4865 56.4148 44.7833 67.0894L10.6448 96.1617C-4.67479 104.823 -16.44 107.691 -29.0319 104.05Z" fill="#1F5774"/>
<path d="M12.6017 87.9972C22.08 73.0473 38.86 60.6074 39.8794 62.5934L44.7839 67.0894C44.7839 67.0894 27.5631 95.6376 5.07965 106.919C-10.3777 114.67 -30.8223 103.168 -30.8223 103.168C-22.6114 105.485 2.159 104.409 12.6017 87.9972Z" fill="#1A4862"/>
<path d="M83.1373 108.436C87.1325 98.4786 90.8798 96.7133 92.2575 85.2664C93.0565 85.4595 93.8556 85.5147 94.6546 85.294L146.097 292.358C146.097 292.358 82.0076 311.004 43.5984 284.47C36.8203 279.78 34.864 253.797 35.9386 233.497C36.0763 188.592 65.393 152.679 83.1373 108.436Z" fill="black"/>
<path d="M134.084 128.406C129.097 134.916 111.435 140.487 109.809 139.191C105.621 135.881 94.407 127.054 90.9353 113.153C88.7586 104.409 88.7586 99.1958 90.9904 80.5222C95.2887 44.6645 130.64 17.7437 129.152 47.5056C128.876 53.2152 117.359 60.635 117.386 66.0964C117.469 80.3291 117.221 91.9967 130.033 100.299C137.115 104.878 144.306 115.028 134.084 128.406Z" fill="#FF8D70"/>
<path d="M66.1921 242.24C65.9717 228.945 69.3056 217.719 69.774 204.562C69.8016 193.639 75.45 181.724 75.6153 170.056C75.9735 153.589 97.1069 126.723 101.157 111.829C101.405 111.994 104.877 112.215 105.097 112.242C111.738 113.07 115.264 102.395 123.861 103.471C153.371 125.317 147.777 191.847 133.009 261.714C133.009 261.686 133.009 261.686 133.009 261.659C124.412 261.41 98.5672 261.355 86.4713 258.294C73.5764 255.259 65.9717 251.453 66.1921 242.24Z" fill="#E7F4F6"/>
<path d="M90.4943 80.274C86.8572 98.2304 92.9465 111.222 101.157 111.829C97.0795 126.723 81.4292 154.803 81.071 171.242C80.9057 182.91 71.8683 192.288 71.8407 203.211C71.3723 216.368 66.6331 211.513 66.8536 224.808C66.33 233.193 68.8374 252.611 63.4094 247.702C32.5773 219.76 83.7162 151.189 90.4943 80.274Z" fill="#C6DCE1"/>
<path d="M88.6204 124.158C92.7809 107.581 102.921 112.27 102.921 112.27C102.921 112.27 87.0499 111.001 91.0175 77.7639C83.6884 93.7068 85.8375 111.305 88.6204 124.158Z" fill="white"/>
<path d="M122.153 110.45C120.141 114.615 103.031 128.075 103.031 128.075C103.031 128.075 106.861 117.594 100.799 111.249C114.024 109.098 118.819 89.597 118.047 81.2394C124.302 90.7003 126.864 100.685 122.153 110.45Z" fill="white"/>
<path d="M54.1787 131.164C50.2111 76.2745 60.0476 70.4545 89.8327 81.6255C88.455 93.0724 83.7158 107.967 81.5667 118.504C72.5568 162.967 41.394 183.875 36.3242 226.049C37.3161 185.806 56.5759 164.236 54.1787 131.164Z" fill="#1F5774"/>
<path d="M125.845 108.795L123.641 91.9415C127.884 92.6863 160.783 112.436 168.194 121.979C154.666 144.018 149.32 181.586 161.775 203.79C159.35 220.091 150.946 264.472 183.762 291.889C163.593 315.445 117.8 309.515 107.329 306.481C71.4825 296.054 101.295 197.363 125.845 108.795Z" fill="#205773"/>
<path d="M122.153 86.5905C125.019 89.266 134.635 107.443 138.85 120.269C136.067 122.034 134.001 125.013 131.769 126.365C133.808 130.668 135.379 132.571 138.354 137.067C124.44 167.27 108.872 188.04 103.307 192.839C117.607 130.392 124.302 106.533 122.153 86.5905Z" fill="#356F90"/>
<path d="M91.1548 77.0192C83.1644 85.2665 78.7283 87.418 72.3359 99.6647C73.6034 103.03 74.43 106.064 75.9454 108.215C72.391 111.387 71.2338 112.187 66.7426 115.194C64.9241 136.157 60.2125 159.961 58.3389 171.546C82.7511 140.074 87.4351 100.189 91.1548 77.0192Z" fill="#357091"/>
<path d="M56.9612 248.005C59.6614 252.032 61.783 255.452 64.5934 258.514C67.6518 257.742 70.4072 256.308 74.5402 252.584C68.8642 202.852 95.9766 147.107 98.5115 114.808C81.952 134.254 67.3212 174.718 59.7992 215.706C56.4377 234.076 56.9612 247.977 56.9612 248.005Z" fill="#EF5656"/>
<path d="M94.957 124.682C98.1807 123.469 100.247 122.31 103.664 117.4C105.923 114.146 100.936 111.443 97.9327 111.608C93.8273 111.801 92.3394 116.545 94.957 124.682Z" fill="#EF5656"/>
<path d="M162.132 132.764C163.317 131.026 164.612 129.344 166.045 127.744L166.982 128.792L219.333 234.159L215.861 298.84V306.26L199.963 310.37C199.963 310.37 186.159 258.79 181.53 248.667C175.413 235.289 167.671 215.595 156.87 204.369C149.706 181.641 148.493 152.651 162.132 132.764Z" fill="#15415A"/>
<path d="M201.313 235.703C203.407 197.887 151.937 157.175 162.132 132.764C163.317 131.026 166.789 123.551 168.221 121.979C204.454 159.74 212.747 206.934 219.36 234.159C223.493 251.177 215.889 306.26 215.889 306.26L213.106 306.646C195.609 265.244 200.596 248.695 201.313 235.703Z" fill="#205773"/>
<path d="M110.305 34.7347C125.073 41.4097 112.977 64.4138 98.76 71.9163C83.2475 80.1084 74.0447 59.1731 92.588 39.0652C100.303 30.7076 107.274 33.3556 110.305 34.7347Z" fill="#F3795E"/>
<path d="M120.142 45.9885C121.271 47.1745 126.093 54.2909 118.654 62.8416C112.344 69.4063 110.305 64.9103 109.589 65.9585C105.18 72.5232 95.509 74.6746 91.1555 74.0402C80.6302 72.5232 82.4212 57.9594 90.7422 48.4434C99.2011 38.7894 108.983 28.5286 120.142 45.9885Z" fill="#FAB787"/>
<path d="M104.959 47.4503C105.676 48.333 106.227 49.988 104.766 50.512C104.243 50.7051 100.992 50.2362 100.578 49.8225C100.358 49.6018 100.275 49.2708 100.22 48.9398C100.137 48.1123 100.358 47.2297 100.881 46.5401C102.507 44.3887 103.03 45.161 104.959 47.4503Z" fill="#F3795E"/>
<path d="M115.016 58.8697C111.407 61.5728 114.024 61.3797 112.674 62.4831C112.371 62.7313 112.013 62.9795 111.93 63.3381C111.572 64.3587 114.603 63.6691 116.945 62.2348C120.196 60.2213 118.764 56.0838 115.016 58.8697Z" fill="#F3795E"/>
<path d="M96.7483 60.9659C87.2976 62.4554 85.6719 60.5522 86.1403 55.3391C86.1128 55.3391 96.7483 60.9659 96.7483 60.9659Z" fill="white"/>
<path d="M95.1223 44.3336C94.6814 44.9404 93.8824 45.0783 93.3313 44.6646C92.7803 44.2508 92.67 43.4509 93.1109 42.8441C93.5517 42.2373 94.3508 42.0994 94.9018 42.5131C95.4529 42.8993 95.5631 43.7268 95.1223 44.3336Z" fill="#171812"/>
<path d="M102.893 50.3466C102.452 50.9535 101.653 51.0914 101.102 50.6776C100.551 50.2639 100.441 49.464 100.881 48.8572C101.322 48.2503 102.121 48.1124 102.672 48.5262C103.223 48.9123 103.334 49.7398 102.893 50.3466Z" fill="#171812"/>
<path d="M89.6121 55.5597C88.51 54.9805 87.8763 54.2633 87.711 53.4083C87.2701 51.2844 89.8326 48.9399 92.3124 46.6505C94.3237 44.8024 96.6107 42.7337 96.28 41.4649C96.1147 40.8305 95.2055 40.2789 93.6349 39.8651L93.8829 38.8721C95.8943 39.3962 96.9964 40.1685 97.2719 41.2167C97.7404 43.0647 95.4259 45.1886 93.0012 47.4228C90.8245 49.4088 88.3722 51.643 88.7029 53.2152C88.8682 53.9599 89.7223 54.6219 91.2378 55.146L90.9071 56.1114C90.4387 55.9459 89.9979 55.7528 89.6121 55.5597Z" fill="#221F1F"/>
<path d="M105.455 49.2433C104.546 47.3125 103.912 46.5677 102.534 45.7403L103.058 44.8576C104.601 45.7678 105.4 46.6781 106.392 48.8019L105.455 49.2433Z" fill="#221F1F"/>
<path d="M115.071 43.5061C115.732 46.7608 112.922 51.5602 112.178 54.5392C111.241 58.3732 113.666 56.801 114.493 56.4424C117.799 54.9253 120.94 56.0838 120.637 59.0076C120.058 64.9931 114.437 64.2208 117.551 75.7228C119.865 72.4404 123.861 71.7233 132.871 63.9449C158.578 41.7132 135.626 47.9469 138.216 36.8034C140.999 24.7497 125.404 26.9839 125.679 22.9293C126.258 14.8475 118.956 9.02753 110.828 20.171C100.468 34.4037 102.645 33.4107 105.455 33.7969C111.847 34.6244 114.245 39.2859 115.071 43.5061Z" fill="black"/>
</g>
</svg>
