<svg width="263" height="360" viewBox="0 0 263 360" fill="none" xmlns="http://www.w3.org/2000/svg">
<g clip-path="url(#clip0)">
<path d="M169.872 67.365L166.361 72.945L111.718 159.75C161.77 165.6 187.967 174.375 187.967 142.02C187.967 134.055 187.967 129.465 187.967 123.705C187.967 119.835 187.381 115.47 187.562 109.215C188.732 73.62 181.845 67.86 169.872 67.365Z" fill="#AA2626"/>
<path d="M12.0633 343.395C19.4001 332.37 19.3101 327.915 29.7977 322.245C27.142 319.365 24.4413 317.97 21.3806 315.405C20.0753 316.08 17.2846 319.905 16.4744 320.13C13.9537 320.85 13.1885 320.49 10.6229 321.03C5.17657 322.245 14.4489 326.34 8.82247 332.37C3.6912 337.995 9.18256 344.07 12.0633 343.395Z" fill="#FF7B5D"/>
<path d="M12.3331 342.18C14.2686 349.02 14.0436 353.655 9.04733 346.68C0.990334 335.43 7.38191 333.585 6.97681 330.93C3.87105 332.595 4.68125 332.1 1.80053 334.125C0.945323 333.09 0.630245 332.955 -0.0449219 331.56C6.03158 323.865 7.87704 320.805 12.1981 320.625C14.0436 324 13.3234 327.735 12.8283 330.165C11.793 335.16 10.6227 336.06 12.3331 342.18Z" fill="#E03636"/>
<path d="M16.4736 318.42C34.6581 296.955 44.1105 280.62 62.8351 268.425C64.4105 267.39 65.9859 266.22 67.5162 264.915C70.622 264.06 73.5477 263.115 75.9333 261.405C89.3016 252 96.2334 237.51 105.011 224.055C105.551 222.885 106.856 222.12 107.801 221.13C121.034 209.205 117.659 190.755 111.627 175.635C112.842 170.28 114.463 164.07 122.52 156.735C135.033 161.55 139.039 170.73 151.642 183.06C155.468 186.795 161.68 193.635 161.589 194.49C157.358 204.345 160.374 216.63 159.159 219.24C147.096 244.44 125.221 256.95 110.547 273.15C79.4442 302.355 26.6011 329.85 26.6011 329.85C21.6049 328.005 20.1195 322.965 16.4736 318.42Z" fill="#041F2C"/>
<path d="M102.76 280.125C76.9687 302.76 49.3768 316.665 26.7812 329.94C28.7167 327.24 76.8786 285.975 102.76 280.125Z" fill="#00121F"/>
<path d="M107.757 221.175C106.811 222.165 105.506 222.93 104.966 224.1C96.1888 237.555 89.2571 252 75.8888 261.45C73.5032 263.16 70.6225 264.105 67.4717 264.96C80.705 253.8 91.2376 234.045 101.95 213.75C111.313 195.975 114.913 195.615 112.753 189.36C111.763 186.57 110.187 181.89 111.583 175.725C117.614 190.8 121.035 209.25 107.757 221.175Z" fill="#00121F"/>
<path d="M256.203 349.875C246.436 340.965 241.98 340.335 238.019 329.13C234.778 331.335 232.978 333.765 230.007 336.42C230.502 337.815 233.833 341.19 233.923 342C234.238 344.61 233.743 345.285 233.923 347.895C234.283 353.475 239.729 344.925 244.86 351.405C249.587 357.345 256.473 352.845 256.203 349.875Z" fill="#FF7B5D"/>
<path d="M255.078 349.425C262.144 348.57 266.69 349.515 259.039 353.34C246.66 359.595 245.85 352.98 243.15 352.98C244.32 356.31 243.96 355.41 245.535 358.56C244.41 359.28 244.23 359.505 242.699 360C236.038 352.8 233.247 350.505 233.742 346.23C237.388 344.925 240.989 346.185 243.285 347.04C248.011 348.885 248.731 350.19 255.078 349.425Z" fill="#E03636"/>
<path d="M225.371 339.39C219.25 324.855 195.439 302.175 189.992 281.745C189.497 279.81 189.092 277.83 188.507 275.85C188.822 272.43 188.957 269.19 188.237 266.22C185.536 254.34 158.215 215.055 115.544 193.725C111.898 192.15 103.841 179.145 108.927 162.315C122.296 141.93 154.929 151.83 173.743 163.395C176.174 167.76 181.35 172.755 183.556 176.355C198.95 201.24 200.435 214.11 210.518 236.205C214.929 245.88 217.674 250.11 221.86 262.71C230.187 298.845 229.782 308.88 240.09 333.18C236.849 338.265 227.172 343.665 225.371 339.39Z" fill="#13374B"/>
<path d="M220.96 261.135C222.85 266.76 231.268 306.585 231.268 306.585C233.248 314.955 238.154 327.735 239.144 331.65C219.835 299.25 221.41 298.44 220.96 261.135Z" fill="#0B2837"/>
<path d="M188.687 266.22C189.723 269.1 188.777 272.43 188.507 275.85C183.151 258.66 168.117 245.52 153.849 227.565C141.381 211.86 133.099 209.7 127.742 206.46C119.055 201.24 112.483 193.68 109.513 184.86C120.315 201.915 164.696 200.25 188.687 266.22Z" fill="#0B2837"/>
<path d="M116.984 164.88C117.525 163.8 119.055 160.47 119.685 159.345C127.562 148.77 149.302 156.465 151.283 158.67C151.463 158.85 173.113 153.315 173.113 153.675C173.113 162.18 176.084 167.49 181.35 173.205C163.796 157.725 136.069 162.09 116.984 164.88Z" fill="#0B2837"/>
<path d="M238.379 17.7301C239.595 16.0201 240.27 13.0501 240.45 12.0601C241.035 9.31508 243.466 5.62508 242.295 4.77008C241.35 4.72508 239.685 9.85508 238.874 9.99008C238.379 9.31508 243.15 2.11508 241.575 1.93508C240.135 1.66508 237.749 8.01008 236.894 8.73008C235.859 7.83008 241.17 0.0900781 239.279 -0.0449219C237.794 -0.0449219 234.913 8.32508 234.463 8.14508C233.293 7.60508 236.669 1.26008 235.769 0.720078C234.598 0.0450781 233.113 4.77008 231.583 8.41508C230.187 11.7451 229.107 12.7351 229.917 15.0751C230.637 17.1901 229.512 19.8001 230.952 21.5101C231.988 22.7251 233.788 28.8001 234.418 26.9101C235.544 23.4451 235.814 21.3751 238.379 17.7301Z" fill="#FF7B5D"/>
<path d="M227.667 6.84C226.541 6.525 227.487 8.64 227.487 9.675C226.812 10.26 228.387 14.085 228.432 15.12C228.657 16.74 231.358 21.105 231.853 20.88C232.618 20.52 233.248 19.755 233.473 18.81C233.923 17.01 233.203 14.49 231.223 13.275C230.322 12.69 229.422 10.845 229.557 11.025C229.152 9.99 229.557 7.335 227.667 6.84Z" fill="#FCB988"/>
<path d="M231.043 26.8652C230.502 26.7302 227.757 26.5952 227.127 26.6402C226.226 26.4602 224.021 30.4202 223.211 30.6902C219.79 35.2802 216.414 39.9152 213.038 44.5952C215.244 46.9802 217.224 49.6802 219.25 52.3352C222.941 47.5652 226.316 42.4802 229.467 37.2602C230.817 35.5952 235.049 30.0602 231.043 26.8652Z" fill="#B6CAD8"/>
<path d="M228.702 23.22C226.811 25.695 224.921 28.17 223.075 30.69C223.931 30.42 225.956 28.035 226.811 28.215C229.152 27.315 234.058 28.395 229.332 37.26C226.316 42.255 223.075 47.16 219.564 51.75C220.465 52.83 221.41 53.865 222.31 54.945C226.856 48.06 231.762 40.455 234.958 32.175C234.958 32.13 230.502 26.775 228.702 23.22Z" fill="#B6CAD8"/>
<path d="M236.804 25.2001C236.669 24.3451 235.813 23.4001 234.733 22.4551C234.463 24.9751 233.248 27.0451 231.897 29.1151C232.708 29.7901 233.608 30.5101 234.688 31.5001C235.588 30.2851 236.534 26.4601 236.804 25.2001Z" fill="#D0E4EA"/>
<path d="M229.918 18.8101C228.702 20.6551 227.892 23.1301 227.172 24.8401C229.242 26.9101 230.458 27.9901 231.853 29.1151C233.203 27.0451 234.419 24.9301 234.689 22.4551C232.798 20.7451 230.233 19.1701 229.918 18.8101Z" fill="#E4F4F9"/>
<path d="M227.937 22.8149L207.637 56.2949C190.847 67.0049 184.861 64.1249 177.659 70.3349C177.659 70.3349 182.07 96.6599 184.861 107.37C191.613 97.8299 199.625 93.2399 215.153 77.1299C229.512 62.2349 236.174 29.8349 236.174 29.8349C231.537 25.6499 235.453 29.8799 227.937 22.8149Z" fill="#E03636"/>
<path d="M214.073 55.395C218.484 49.41 234.508 28.935 234.688 28.44L227.892 22.5C227.892 22.5 217.134 41.49 208.267 50.715C199.76 59.535 188.552 65.925 188.552 65.925C194.943 66.015 208.582 62.865 214.073 55.395Z" fill="#ED4A4A"/>
<path d="M169.423 65.7451L166.362 72.9451C166.452 75.3751 167.218 77.7601 168.523 79.5151C171.944 84.9151 173.429 90.4951 176.4 95.4001C179.821 100.8 182.206 106.065 184.682 112.95C186.392 116.955 187.608 122.625 188.058 129.51C188.058 123.615 188.058 115.515 188.058 109.26C188.013 67.5901 186.797 69.3451 169.423 65.7451Z" fill="#F44747"/>
<path d="M170.457 64.4399L165.866 75.2399L172.438 92.9249L179.955 105.03C179.46 81.4499 178.019 78.7049 171.088 78.1649C169.242 78.0749 181.755 74.7899 170.457 64.4399Z" fill="#F97373"/>
<path d="M141.966 71.73C143.631 68.85 146.647 70.065 148.402 67.455C151.553 62.73 156.144 61.56 155.649 55.26C158.98 44.415 163.211 22.41 171.628 40.905C178.38 55.665 171.988 56.7 170.143 68.445C169.108 74.925 168.477 96.885 164.921 98.685C162.806 100.26 155.334 94.23 152.768 93.285C144.486 89.01 143.361 79.92 141.966 71.73Z" fill="#FF7B5D"/>
<path d="M170.233 67.7251C169.018 79.5151 165.147 87.5701 164.067 100.665C162.491 120.105 152.409 132.75 155.74 142.605C156.955 146.205 155.785 161.055 158.981 160.785C178.65 159.165 175.365 152.775 172.439 143.01C170.818 137.61 167.848 131.31 174.149 122.13C191.389 97.0201 169.243 100.17 170.233 67.7251Z" fill="#D8E9EF"/>
<path d="M154.074 60.48C151.508 63.225 144.622 69.57 139.896 70.92C140.661 72.27 141.471 73.575 142.281 74.88C146.962 82.935 148.358 92.205 148.763 101.655C149.213 113.625 144.892 124.515 141.786 136.215C139.851 144.765 141.606 152.82 144.712 160.47C192.108 164.61 147.952 146.07 166.452 123.345C185.492 99.945 159.295 98.865 154.074 60.48Z" fill="white"/>
<path d="M150.158 64.125C138.05 69.39 133.459 72 130.668 73.125C134.044 79.83 134.134 86.85 132.198 93.555C130.488 99.585 127.157 105.39 123.061 110.52C123.781 114.21 125.582 126.72 118.335 133.065C111.763 138.78 101.636 161.595 101.636 161.595C103.481 162.315 105.282 162.945 106.992 163.62C121.891 169.245 130.983 172.485 138.005 168.975C149.843 163.035 150.293 138.015 156.684 114.885C159.925 103.32 155.064 68.4 150.158 64.125Z" fill="#F75454"/>
<path d="M137.555 133.605C142.461 130.635 145.927 124.74 142.956 119.835C136.699 111.285 130.893 104.085 131.883 94.5C130.173 100.53 127.112 105.435 123.061 110.565C123.781 114.255 125.582 126.765 118.335 133.11C111.763 138.825 101.636 161.64 101.636 161.64C103.481 162.36 105.282 162.99 106.992 163.665C113.204 151.155 125.267 141.435 137.555 133.605Z" fill="#DB3E3E"/>
<path d="M151.463 62.46C151.463 62.46 154.389 71.46 155.74 76.86C157.09 82.26 158.035 89.145 158.35 95.535C158.665 101.925 157.675 111.915 157.675 111.915C142.596 88.965 144.397 86.13 150.473 81.765C139.986 79.785 142.281 72.27 143.271 66.69L151.463 62.46Z" fill="#FC7777"/>
<path d="M71.5689 171L67.1578 166.59C63.5569 162.99 63.7819 162.765 60.181 166.32L59.956 166.545C56.3101 170.19 57.8405 171.45 59.6409 173.205C58.7407 172.215 58.3356 171.18 60.4961 169.02L60.6762 168.84C63.872 165.645 63.6469 166.095 66.2576 168.66L69.4533 171.855C72.064 174.465 71.7939 174.105 68.8682 177.03L68.6882 177.21C66.4376 179.46 65.1323 179.505 64.007 178.38L64.097 178.47C65.9875 180.36 67.5629 181.35 71.1638 177.795L71.3888 177.57C75.0347 173.97 74.9447 174.375 71.5689 171Z" fill="#172A33"/>
<path d="M52.5286 231.705L7.65251 186.84C5.89708 185.085 5.89708 182.205 7.65251 180.495L36.3246 151.83C38.08 150.075 40.9607 150.075 42.6712 151.83L87.5473 196.695C89.3027 198.45 89.3027 201.33 87.5473 203.04L58.8752 231.705C57.1648 233.46 54.284 233.46 52.5286 231.705Z" fill="#366580"/>
<path d="M76.8798 166.59C77.0149 165.51 76.6998 164.295 76.5647 162.99C77.0599 161.46 77.42 160.245 77.3749 160.02C77.2849 158.895 76.4297 156.69 76.2497 155.88C76.2047 155.61 75.6645 155.79 74.8993 156.285C74.6743 156.285 74.3592 156.51 74.0441 156.87C72.7838 157.77 71.2984 159.03 70.3532 159.885C70.8483 160.29 71.3435 160.74 71.7936 161.235C71.7936 161.28 71.7936 161.28 71.7486 161.325C72.5588 162.36 74.6293 165.24 70.9834 168.39C70.9834 168.435 70.9834 168.435 71.0284 168.435C68.6428 169.065 65.267 168.705 63.6916 167.4C63.5115 168.03 62.3862 170.595 63.7366 170.82C64.6368 171 64.1867 172.125 65.1769 172.08C66.2572 172.035 65.8521 173.34 66.9774 173.115C67.9226 172.935 68.3277 174.15 68.7778 174.15C71.7936 174.285 68.6878 172.935 73.1439 169.965C73.3239 170.235 73.594 170.685 73.414 171.18C72.8288 172.935 72.7388 172.935 72.7838 173.97C72.8288 174.915 73.594 175.185 73.8191 175.095C74.7643 174.69 74.0891 173.655 75.4845 172.35C76.3847 171.63 76.6998 167.895 76.8798 166.59Z" fill="#FF7B5D"/>
<path d="M70.9381 168.795C74.0889 166.32 73.9539 162.135 70.443 159.84C65.8068 163.665 64.4565 165.33 63.9164 166.815C63.8263 167.04 63.7813 167.22 63.7363 167.4C65.5818 168.885 69.2727 170.235 70.9381 168.795Z" fill="#FCB988"/>
<path d="M74.5391 160.65C77.0147 161.865 79.9854 163.08 79.9854 163.08C79.9854 163.08 82.416 160.065 84.8016 153.855C83.0462 153.45 79.6703 151.65 77.8699 151.29C77.3748 154.8 76.3845 158.04 74.5391 160.65Z" fill="#C7DDE2"/>
<path d="M70.9834 159.075C71.0734 158.805 73.0989 160.245 74.5843 160.65C76.4297 158.04 78.7703 155.07 79.3555 151.65C77.2399 151.2 77.7351 151.155 75.6646 150.57C75.3945 150.885 73.549 152.325 70.9834 159.075Z" fill="#E4F4F9"/>
<path d="M135.349 82.6201C135.124 79.2901 134.269 75.9151 132.603 72.6301C111.943 75.6001 97.6746 98.5051 89.1675 114.615C85.3866 121.815 72.1533 155.565 72.1533 155.565L77.6447 157.86L83.2261 160.2C83.2261 160.2 101.636 135.585 103.751 130.41C104.561 128.385 121.26 110.43 124.996 110.025C131.388 102.015 136.024 92.2951 135.349 82.6201Z" fill="#F75454"/>
<path d="M77.6895 157.905L83.2708 160.245C83.2708 160.245 101.68 135.63 103.796 130.455C104.606 128.43 118.154 114.255 123.601 112.59C132.018 105.795 134.088 96.2101 133.863 83.0701C130.262 98.5951 117.254 107.055 106.046 115.29C86.4216 129.645 101.14 135.045 77.6895 157.905Z" fill="#DB3E3E"/>
<path d="M187.291 40.3201C184.77 36.1351 188.641 33.3001 186.391 28.9351C185.445 27.0901 181.935 27.0451 180.539 22.9501C176.308 10.5751 169.466 56.1601 177.073 53.6401C184.86 51.1201 188.866 42.9301 187.291 40.3201Z" fill="black"/>
<path d="M162.31 33.12C167.306 26.595 175.498 31.545 177.929 33.435C182.52 36.99 183.78 42.255 182.97 47.835C182.34 52.065 179.144 59.085 174.868 59.94C170.952 61.065 153.893 44.055 162.31 33.12Z" fill="#FF7B5D"/>
<path d="M177.119 37.6649C178.064 40.0049 177.119 42.9299 178.109 45.2249C178.424 46.3499 179.414 47.9249 178.964 49.4099C178.559 50.1299 177.029 50.0399 176.984 50.7599C175.318 53.5499 178.019 57.4649 176.263 59.1749C173.203 62.3699 164.966 58.0499 165.011 50.4449C162.715 51.5699 161.545 48.2399 161.14 44.7749C160.014 41.2649 158.169 38.4749 160.329 35.3249C170.007 21.1499 176.984 37.2599 177.119 37.6649Z" fill="#FCB988"/>
<path d="M164.605 45.81C165.37 47.88 164.245 47.34 164.515 48.105C164.56 48.285 164.515 48.915 164.38 49.05C164.11 49.5 163.39 47.97 162.76 46.755C161.904 45.09 163.84 43.695 164.605 45.81Z" fill="#FF7B5D"/>
<path d="M169.781 42.9749C169.736 43.8749 171.042 45.1799 171.987 45.2249C172.932 45.2699 174.553 44.4149 174.598 43.5149C174.643 42.6149 172.797 41.6249 171.852 41.5349C170.907 41.4899 169.826 42.0749 169.781 42.9749Z" fill="#FF7B5D"/>
<path d="M171.133 50.6699C175.094 54.9449 176.624 54.6749 178.515 52.1999C178.47 52.1549 171.133 50.6699 171.133 50.6699Z" fill="white"/>
<path d="M171.267 44.775C171.222 45.27 171.583 45.675 172.078 45.72C172.573 45.765 172.978 45.405 173.023 44.91C173.068 44.415 172.708 44.01 172.213 43.965C171.718 43.92 171.267 44.28 171.267 44.775Z" fill="#16170F"/>
<path d="M173.608 42.525C172.393 41.625 171.448 41.58 170.232 42.39L169.827 41.76C171.268 40.815 172.618 40.86 174.058 41.895L173.608 42.525Z" fill="#231F20"/>
<path d="M178.92 43.965C178.875 44.46 179.235 44.865 179.73 44.91C180.225 44.955 180.63 44.595 180.675 44.1C180.72 43.605 180.36 43.2 179.865 43.155C179.37 43.11 178.965 43.515 178.92 43.965Z" fill="#16170F"/>
<path d="M177.254 50.535L177.029 49.815C177.975 49.5 178.515 49.14 178.65 48.78C178.83 48.375 178.56 47.79 178.2 47.16C177.389 45.54 176.264 43.29 180.585 40.5L180.99 41.13C177.254 43.605 178.11 45.315 178.875 46.845C179.28 47.61 179.64 48.375 179.325 49.095C179.1 49.635 178.425 50.13 177.254 50.535Z" fill="#231F20"/>
<path d="M180.494 25.605C181.53 18.72 176.128 17.1 171.447 20.61C168.431 22.86 163.075 15.075 159.249 22.185C157.269 25.875 153.443 23.445 151.147 24.48C147.861 24.975 150.292 31.59 143.765 33.39C140.705 34.245 138.814 44.145 151.417 49.86C154.433 51.21 153.128 55.215 155.648 57.465C155.873 56.61 156.819 54.405 158.214 53.37C161.32 51.12 162.22 50.67 161.455 46.71C160.69 42.66 164.65 42.615 165.911 45.405C166.631 42.705 167.936 38.655 170.997 37.8C176.939 36.135 179.729 31.005 180.494 25.605Z" fill="black"/>
</g>
<defs>
<clipPath id="clip0">
<rect width="263" height="360" fill="white"/>
</clipPath>
</defs>
</svg>
